# xmcd
#
# Track frame offsets: 
#        150
#        10839
#        24782
#        37985
#        66092
#        105189
#        121929
#        144104
#        169020
#        196432
#        210606
#        226355
#        240889
#        271430
#        297215
#        307977
#
# Disc length: 4260 seconds
#
# Revision: 0
# Processed by: cddbd v1.5.2PL0 Copyright (c) Steve Scherf et al.
# Submitted via: ExactAudioCopyFreeDBPlugin 1.0
#
DISCID=c410a210
DTITLE=Various Artist - What's The Word? Socially Conscious Soul Musi
DTITLE=c
DYEAR=1900
DGENRE=Soul
TTITLE0=The Impressions - Mighty Mighty - Spade and Whitey
TTITLE1=Lee Dorsey - Who's Gonna Help A Brother Gert Further
TTITLE2=Larry Darnell - Son Of A Son Of A Slave
TTITLE3=Moody Scott - (We Gotta) Bust Out Of The Ghetto
TTITLE4=Philadelphia International All-Stars - Let's Clean Up The Ghet
TTITLE4=to
TTITLE5=The Last Poets With Bernard Purdie - Blessed Are Those Who Str
TTITLE5=uggle
TTITLE6=Parliament - Oh Lord Why Lord - Prayer
TTITLE7=Gil Scott Heron - Peace Go With You Brother
TTITLE8=Curtis Mayfield - We The People Who Are Darker Than Blue
TTITLE9=Harrison Kennedy - Sunday Morning People
TTITLE10=Freda Payne - Bring The Boys Home
TTITLE11=Laura Lee - Women's Love Rights
TTITLE12=Billy Paul - False Faces
TTITLE13=Chairman of the Board - I'm A Sign Of Changing Times
TTITLE14=The Identities - Hey Brother
TTITLE15=Brothers And Sisters - I Am Somebody (part 1)
EXTD=
EXTT0=
EXTT1=
EXTT2=
EXTT3=
EXTT4=
EXTT5=
EXTT6=
EXTT7=
EXTT8=
EXTT9=
EXTT10=
EXTT11=
EXTT12=
EXTT13=
EXTT14=
EXTT15=
PLAYORDER=
